<?xml version="1.0" encoding="UTF-8"?>
<svg width="1024" height="1024" viewBox="0 0 1024 1024" fill="none" xmlns="http://www.w3.org/2000/svg">
  <defs>
    <!-- Vibe play-mark gradient (matches the logo's blue play button) -->
    <linearGradient id="play" x1="360" y1="286" x2="788" y2="738" gradientUnits="userSpaceOnUse">
      <stop offset="0" stop-color="#62CDF6"/>
      <stop offset="0.5" stop-color="#2E97F1"/>
      <stop offset="1" stop-color="#1257C8"/>
    </linearGradient>
    <!-- Soft top-left highlight -->
    <linearGradient id="hl" x1="360" y1="300" x2="700" y2="720" gradientUnits="userSpaceOnUse">
      <stop offset="0" stop-color="#FFFFFF" stop-opacity="0.28"/>
      <stop offset="1" stop-color="#FFFFFF" stop-opacity="0"/>
    </linearGradient>
  </defs>

  <!-- Centered play mark, scaled into the adaptive-icon safe zone (~66%) -->
  <g transform="translate(512,512) scale(0.66) translate(-574,-512)">
    <path d="
      M 382 286
      Q 360 286 360 308
      L 360 716
      Q 360 738 382 738
      Q 392 738 401 732
      L 767 540
      Q 788 528 788 512
      Q 788 496 767 484
      L 401 292
      Q 392 286 382 286
      Z" fill="url(#play)"/>
    <path d="
      M 382 302
      Q 378 302 378 306
      L 378 700
      Q 378 704 382 704
      Q 388 704 394 700
      L 735 524
      Q 746 518 746 512
      Q 746 506 735 500
      L 394 324
      Q 388 320 382 320
      Z" fill="url(#hl)"/>
  </g>
</svg>
