<svg xmlns="http://www.w3.org/2000/svg" viewBox="0 0 1051 376">
  <path d="M5.0,102.5 L5.0,204.2 L27.3,203.7 C41.9,203.3 51.7,202.6 56.0,201.6 C92.1,193.1 119.8,168.2 131.3,133.9 C135.2,122.3 136.3,112.8 135.7,97.3 C135.0,77.3 130.5,63.3 119.4,46.2 C106.4,26.3 86.5,11.8 62.0,4.3 C54.1,1.9 51.8,1.7 29.3,1.2 L5.0,0.8 L5.0,102.5 Z" fill="#000000"/>
  <path d="M243.6,2.6 C199.3,12.1 167.4,47.9 163.0,93.1 C160.0,123.9 171.6,154.2 195.0,176.3 C205.4,186.2 216.2,192.8 229.5,197.6 C242.8,202.3 254.8,204.0 276.3,204.0 L294.0,204.0 L294.0,102.5 L294.0,1.0 L272.3,1.1 C257.1,1.1 248.4,1.6 243.6,2.6 Z" fill="#000000"/>
  <path d="M355.2,102.2 L355.5,203.5 L398.0,203.5 C428.9,203.5 442.3,203.1 447.0,202.2 C468.3,197.9 487.7,187.4 502.0,172.3 C513.9,159.9 521.4,146.8 526.7,129.5 C529.2,121.1 529.4,119.2 529.4,102.5 C529.5,86.7 529.2,83.6 527.2,76.6 C520.0,51.5 505.1,30.8 484.8,17.6 C475.1,11.3 467.8,7.9 456.0,4.2 L447.5,1.6 L401.2,1.2 L355.0,0.9 L355.2,102.2 Z M437.7,32.1 C454.2,34.3 466.0,40.2 478.1,52.0 C500.8,74.3 506.0,107.0 491.4,135.1 C484.4,148.4 473.8,158.5 459.5,165.5 C446.3,172.0 439.8,173.0 410.5,173.0 L386.0,173.0 L386.0,102.7 C386.0,64.0 386.3,32.0 386.7,31.7 C387.8,30.6 429.2,30.9 437.7,32.1 Z" fill="#000000"/>
  <path d="M707.0,102.5 L707.0,204.0 L722.5,204.0 L738.0,204.0 L738.0,102.5 L738.0,1.0 L722.5,1.0 L707.0,1.0 L707.0,102.5 Z" fill="#000000"/>
  <path d="M764.0,102.5 L764.0,204.0 L779.0,204.0 L794.0,204.0 L794.0,198.0 C794.0,194.7 794.2,192.0 794.5,192.0 C794.7,192.0 797.8,193.5 801.2,195.4 C821.4,206.4 844.5,206.7 866.0,196.3 C873.9,192.5 876.8,190.4 884.0,183.1 C891.2,176.0 893.5,172.9 897.4,165.0 C907.6,144.3 907.6,123.6 897.5,102.5 C885.5,77.4 858.1,61.4 830.5,63.4 C819.0,64.2 808.0,67.6 799.8,72.7 C797.7,74.0 795.6,75.0 795.0,75.0 C794.3,75.0 794.0,62.5 794.0,38.0 L794.0,1.0 L779.0,1.0 L764.0,1.0 L764.0,102.5 Z M847.2,93.0 C869.1,99.7 882.0,124.0 875.2,145.7 C869.0,165.5 848.4,178.5 828.6,175.2 C819.0,173.7 811.8,170.0 805.1,163.3 C792.0,150.1 788.7,132.2 796.4,115.5 C799.1,109.5 806.5,101.0 812.2,97.4 C822.2,91.1 835.6,89.4 847.2,93.0 Z" fill="#000000"/>
  <path d="M603.5,64.4 C578.2,69.3 557.5,87.6 549.3,112.5 C547.0,119.5 546.7,122.1 546.7,133.5 C546.7,144.9 547.0,147.5 549.3,154.5 C553.0,165.8 558.3,174.3 567.0,183.1 C575.4,191.6 584.0,196.9 595.8,200.8 C602.5,203.0 605.2,203.4 616.5,203.4 C627.8,203.4 630.5,203.0 637.2,200.8 C649.1,196.9 657.6,191.6 666.0,183.1 C674.7,174.2 680.0,165.7 683.7,154.5 C685.9,147.8 686.3,144.6 686.4,134.5 C686.5,120.8 685.0,113.8 679.5,102.5 C666.1,74.8 633.8,58.5 603.5,64.4 Z M628.7,92.8 C640.4,96.5 649.3,104.2 654.7,115.7 C666.8,141.0 650.9,170.5 622.6,175.2 C596.8,179.5 572.3,156.9 574.3,130.5 C576.3,103.4 603.0,84.8 628.7,92.8 Z" fill="#000000"/>
  <path d="M905.9,67.2 C906.9,69.6 919.7,98.4 934.4,131.4 L961.0,191.2 L953.8,207.4 C949.9,216.2 946.0,224.5 945.2,225.7 C941.5,231.5 932.0,233.7 924.4,230.5 L920.9,229.1 L919.1,233.3 C918.1,235.6 915.4,241.7 913.1,246.8 C910.8,252.0 909.2,256.5 909.5,257.0 C909.8,257.4 913.5,259.3 917.8,261.1 C924.8,264.2 926.4,264.5 935.5,264.5 C944.8,264.5 946.0,264.3 952.2,261.2 C959.8,257.5 967.1,250.8 970.2,244.6 C973.1,238.9 1050.1,66.9 1050.7,64.7 C1051.2,63.1 1050.1,63.0 1034.6,63.2 L1017.9,63.5 L999.4,105.0 C989.2,127.8 980.2,148.1 979.4,150.0 L977.9,153.5 L957.8,108.2 L937.7,63.0 L920.9,63.0 L904.1,63.0 L905.9,67.2 Z" fill="#000000"/>
  <path d="M265.0,277.4 C265.0,277.6 273.1,298.5 282.9,323.7 L300.8,369.7 L306.7,370.0 L312.6,370.3 L330.4,325.0 C340.2,300.1 348.4,279.1 348.7,278.4 C349.1,277.5 347.4,277.2 342.2,277.2 C337.5,277.2 335.1,277.6 334.8,278.4 C334.5,279.1 328.3,296.0 321.0,315.9 C313.7,335.9 307.4,352.2 307.1,352.2 C306.8,352.2 300.4,335.4 292.9,314.9 L279.3,277.7 L272.1,277.4 C268.2,277.2 265.0,277.3 265.0,277.4 Z" fill="#000000"/>
  <path d="M380.5,278.4 C380.2,279.1 380.1,299.9 380.2,324.7 L380.5,369.7 L386.8,370.0 L393.0,370.3 L393.0,323.7 L393.0,277.2 L387.0,277.2 C383.1,277.2 380.8,277.6 380.5,278.4 Z" fill="#000000"/>
  <path d="M458.0,278.2 C448.3,279.8 440.2,285.4 436.9,292.7 C434.6,297.7 434.5,307.0 436.6,312.0 C439.8,319.7 445.7,323.7 461.0,328.7 C470.9,331.9 475.6,335.1 477.6,339.9 C480.4,346.4 476.5,354.8 469.3,357.8 C461.5,361.1 448.1,357.9 443.2,351.7 L441.3,349.3 L436.5,353.6 L431.7,357.8 L436.0,361.5 C448.1,371.8 470.7,372.7 482.2,363.2 C487.6,358.8 491.0,351.2 491.0,343.8 C490.9,330.8 483.1,322.5 466.8,318.2 C464.4,317.5 459.7,315.7 456.4,314.1 C451.6,311.9 449.8,310.4 448.5,307.6 C445.3,300.9 448.0,293.8 455.0,290.2 C462.3,286.5 474.3,288.4 479.4,294.1 L481.4,296.3 L485.7,292.0 C489.8,288.0 489.9,287.7 488.2,285.9 C485.5,282.9 478.0,279.5 471.5,278.3 C465.1,277.1 464.5,277.1 458.0,278.2 Z" fill="#000000"/>
  <path d="M532.0,323.7 L532.0,370.2 L538.5,370.2 L545.0,370.2 L545.0,323.7 L545.0,277.2 L538.5,277.2 L532.0,277.2 L532.0,323.7 Z" fill="#000000"/>
  <path d="M621.0,278.2 C606.3,280.7 594.6,289.6 588.2,303.1 C585.0,309.6 584.6,311.5 584.2,320.6 C583.5,336.7 587.5,347.7 597.7,357.3 C611.7,370.5 633.7,373.7 651.8,365.0 C674.5,354.2 683.4,325.5 671.6,301.6 C662.8,283.9 642.6,274.5 621.0,278.2 Z M644.2,291.4 C654.2,296.0 660.7,305.0 663.0,317.5 C665.0,328.1 661.2,341.2 654.2,348.5 C644.1,359.0 629.7,361.7 616.5,355.8 C609.1,352.5 604.5,347.9 600.8,340.4 C597.7,334.2 597.5,333.0 597.5,323.7 C597.5,315.0 597.9,313.0 600.1,308.2 C606.5,294.5 617.4,287.8 632.1,288.6 C636.4,288.8 640.6,289.8 644.2,291.4 Z" fill="#000000"/>
  <path d="M713.5,278.4 C713.2,279.1 713.1,299.9 713.2,324.7 L713.5,369.7 L719.8,370.0 L726.0,370.3 L726.0,332.7 C726.0,312.0 726.3,295.3 726.8,295.6 C727.2,295.8 738.3,312.7 751.5,333.1 L775.5,370.2 L783.3,370.2 L791.0,370.2 L791.0,323.7 L791.0,277.2 L785.0,277.2 L779.0,277.2 L778.8,314.4 L778.5,351.6 L754.4,314.6 L730.3,277.7 L722.1,277.4 C716.2,277.2 713.8,277.5 713.5,278.4 Z" fill="#000000"/>
</svg>
